<svg width="15" height="14" viewBox="0 0 15 14" fill="none" xmlns="http://www.w3.org/2000/svg">
<path d="M10.1922 3.90313C10.489 3.60781 10.489 3.12656 10.1922 2.83125L9.09999 1.73906L9.10155 1.74063C8.81249 1.45156 8.31561 0.95469 7.61249 0.253127C7.28124 -0.0703105 6.7453 -0.0671855 6.41717 0.260939L0.26405 6.40938C0.185325 6.48757 0.122846 6.58056 0.0802104 6.683C0.0375748 6.78544 0.015625 6.8953 0.015625 7.00625C0.015625 7.11721 0.0375748 7.22707 0.0802104 7.32951C0.122846 7.43194 0.185325 7.52494 0.26405 7.60313L6.41561 13.75C6.57421 13.9083 6.78916 13.9973 7.01327 13.9973C7.23737 13.9973 7.45232 13.9083 7.61092 13.75L10.1906 11.1719C10.4875 10.8766 10.4875 10.3953 10.1906 10.1C10.048 9.95812 9.85505 9.87847 9.65389 9.87847C9.45274 9.87847 9.25977 9.95812 9.11718 10.1L7.16405 12.0563C7.0828 12.1375 6.95624 12.1375 6.87499 12.0563L1.96092 7.14688C1.87967 7.06563 1.87967 6.93906 1.96092 6.85781L6.87342 1.94844C6.87967 1.94219 6.88749 1.9375 6.89374 1.93125C6.97499 1.86719 7.08749 1.87344 7.16249 1.94844L9.11874 3.90313C9.41561 4.2 9.89686 4.2 10.1922 3.90313ZM5.38436 7.0375C5.38436 7.4776 5.55935 7.89966 5.87084 8.21086C6.18233 8.52205 6.60479 8.69688 7.0453 8.69688C7.48581 8.69688 7.90827 8.52205 8.21976 8.21086C8.53125 7.89966 8.70624 7.4776 8.70624 7.0375C8.70624 6.59741 8.53125 6.17534 8.21976 5.86415C7.90827 5.55295 7.48581 5.37813 7.0453 5.37813C6.60479 5.37813 6.18233 5.55295 5.87084 5.86415C5.55935 6.17534 5.38436 6.59741 5.38436 7.0375ZM13.7625 6.43438L11.8422 4.52344C11.5453 4.22813 11.0641 4.22813 10.7687 4.525C10.6982 4.59527 10.6422 4.67879 10.6039 4.77076C10.5657 4.86273 10.546 4.96134 10.546 5.06094C10.546 5.16053 10.5657 5.25915 10.6039 5.35112C10.6422 5.44309 10.6982 5.52661 10.7687 5.59688L12.0656 6.89219C12.1469 6.97344 12.1469 7.1 12.0656 7.18125L10.7875 8.45781C10.7169 8.52808 10.6609 8.6116 10.6227 8.70357C10.5845 8.79554 10.5648 8.89416 10.5648 8.99375C10.5648 9.09335 10.5845 9.19196 10.6227 9.28393C10.6609 9.3759 10.7169 9.45942 10.7875 9.52969C10.9301 9.67157 11.1231 9.75122 11.3242 9.75122C11.5254 9.75122 11.7183 9.67157 11.8609 9.52969L13.7641 7.62813C13.8425 7.54974 13.9047 7.45663 13.9471 7.35415C13.9895 7.25167 14.0113 7.14183 14.0111 7.03093C14.011 6.92002 13.9889 6.81024 13.9463 6.70787C13.9036 6.6055 13.8411 6.51256 13.7625 6.43438Z" fill="white"/>
</svg>
