<svg width="14" height="13" viewBox="0 0 14 13" fill="none" xmlns="http://www.w3.org/2000/svg">
<path d="M13.1892 4.51721L9.22203 3.94064L7.44859 0.345331C7.40015 0.246893 7.32046 0.167205 7.22203 0.118768C6.97515 -0.00310701 6.67515 0.0984555 6.55171 0.345331L4.77828 3.94064L0.811089 4.51721C0.701714 4.53283 0.601714 4.58439 0.525151 4.66252C0.432592 4.75765 0.381587 4.88564 0.383345 5.01836C0.385103 5.15109 0.439479 5.27768 0.534526 5.37033L3.40484 8.16877L2.72671 12.1203C2.71081 12.2123 2.72098 12.3068 2.75608 12.3932C2.79117 12.4797 2.84978 12.5545 2.92526 12.6094C3.00074 12.6642 3.09007 12.6968 3.18312 12.7034C3.27617 12.71 3.36922 12.6904 3.45171 12.6469L7.00015 10.7813L10.5486 12.6469C10.6455 12.6985 10.758 12.7156 10.8658 12.6969C11.1377 12.65 11.3205 12.3922 11.2736 12.1203L10.5955 8.16877L13.4658 5.37033C13.5439 5.29377 13.5955 5.19377 13.6111 5.08439C13.6533 4.81096 13.4627 4.55783 13.1892 4.51721Z" fill="white" fill-opacity="0.5"/>
</svg>
