<svg width="35" height="23" viewBox="0 0 35 23" fill="none" xmlns="http://www.w3.org/2000/svg">
<path d="M31.8148 9.51287C31.8031 8.45819 31.7992 7.39569 31.7953 6.33709H28.6391C28.6273 7.39178 28.6195 8.45037 28.6117 9.51287C27.5492 9.51678 26.4945 9.52459 25.4398 9.53631V12.6965C26.4945 12.7082 27.557 12.716 28.6117 12.7277C28.6234 13.7824 28.6234 14.841 28.6313 15.8957H31.7914C31.7953 14.841 31.8031 13.7824 31.8109 12.7199C32.8734 12.7082 33.9281 12.7043 34.9828 12.6926V9.5324C33.932 9.52459 32.8695 9.52459 31.8148 9.51287ZM11.1117 9.5285C11.1078 10.7902 11.1117 12.0558 11.1156 13.3176C13.2328 13.3879 15.3539 13.3566 17.4711 13.3879C16.5375 18.0871 10.1508 19.6105 6.77188 16.5402C3.29531 13.8488 3.45938 7.94647 7.07266 5.44647C9.6 3.43084 13.1898 3.92694 15.7172 5.67303C16.7094 4.75506 17.6391 3.77069 18.5336 2.75506C16.432 1.07928 13.8539 -0.116033 11.1117 0.0089669C5.38516 -0.182439 0.123438 4.83319 0.0296885 10.5637C-0.337499 15.2472 2.74063 19.8371 7.08438 21.4933C11.4125 23.1613 16.9633 22.0246 19.7289 18.134C21.5531 15.6769 21.9477 12.5129 21.7328 9.54022C18.1898 9.51287 14.6508 9.51678 11.1117 9.5285Z" fill="white"/>
</svg>
