<svg width="12" height="12" viewBox="0 0 12 12" fill="none" xmlns="http://www.w3.org/2000/svg">
<path d="M9.35475 5.9595C10.7933 5.9595 11.9595 5.29699 11.9595 4.47975C11.9595 3.66251 10.7933 3 9.35475 3C7.91619 3 6.75 3.66251 6.75 4.47975C6.75 5.29699 7.91619 5.9595 9.35475 5.9595Z" fill="white"/>
<path fill-rule="evenodd" clip-rule="evenodd" d="M9.39381 6.81075C7.53081 6.81075 6.78906 6.03 6.78906 5.57775V7.515C6.78906 8.3325 7.95531 8.994 9.39381 8.994C10.8338 8.994 12.0001 8.3325 12.0001 7.515V5.62425C12.0001 6.07725 11.2576 6.81075 9.39381 6.81075Z" fill="white"/>
<path fill-rule="evenodd" clip-rule="evenodd" d="M9.39381 9.804C7.72731 9.804 6.78906 9.05325 6.78906 8.601V10.5202C6.78906 11.3377 7.95531 12 9.39381 12C10.8338 12 12.0001 11.3377 12.0001 10.5202V8.57775C12.0001 9.03 11.0611 9.804 9.39381 9.804Z" fill="white"/>
<path d="M2.95275 2.9595C4.58351 2.9595 5.9055 2.29699 5.9055 1.47975C5.9055 0.662507 4.58351 0 2.95275 0C1.32199 0 0 0.662507 0 1.47975C0 2.29699 1.32199 2.9595 2.95275 2.9595Z" fill="white"/>
<path fill-rule="evenodd" clip-rule="evenodd" d="M3.0465 3.81075C0.93525 3.81075 0.09375 3.03 0.09375 2.57775V4.515C0.09375 5.3325 1.416 5.994 3.0465 5.994C4.6785 5.994 6 5.3325 6 4.515V2.62425C6 3.07725 5.15775 3.81075 3.0465 3.81075Z" fill="white"/>
<path fill-rule="evenodd" clip-rule="evenodd" d="M3.0465 6.804C1.15725 6.804 0.09375 6.05325 0.09375 5.601V7.52025C0.09375 8.33775 1.416 9 3.0465 9C4.6785 9 6 8.33775 6 7.52025V5.57775C6 6.03 4.935 6.804 3.0465 6.804Z" fill="white"/>
<path fill-rule="evenodd" clip-rule="evenodd" d="M3.0465 9.804C1.15725 9.804 0.09375 9.05325 0.09375 8.601V10.5202C0.09375 11.3377 1.416 12 3.0465 12C4.6785 12 6 11.3377 6 10.5202V8.57775C6 9.03 4.935 9.804 3.0465 9.804Z" fill="white"/>
</svg>
