<svg width="12" height="10" viewBox="0 0 12 10" fill="none" xmlns="http://www.w3.org/2000/svg">
<path d="M11.6257 1.41117C11.1232 0.458447 9.67546 -0.32105 7.99146 0.132791C7.18676 0.347495 6.48468 0.807934 5.99992 1.43888C5.51515 0.807934 4.81307 0.347495 4.00837 0.132791C2.32063 -0.314121 0.876664 0.458447 0.37409 1.41117C-0.331014 2.74497 -0.0384709 4.24507 1.24422 5.86989C2.24937 7.14133 3.68583 8.4301 5.77113 9.92674C5.83704 9.97422 5.91822 10 6.00179 10C6.08537 10 6.16655 9.97422 6.23245 9.92674C8.31401 8.43357 9.75422 7.15519 10.7594 5.86989C12.0383 4.24507 12.3308 2.74497 11.6257 1.41117Z" fill="white" fill-opacity="0.5"/>
</svg>
