<svg width="16" height="22" viewBox="0 0 16 22" fill="none" xmlns="http://www.w3.org/2000/svg">
<path d="M4.00008 14.517L3.38808 13.259C3.29574 13.0682 3.14517 12.9117 2.95808 12.812L0.958078 11.752C0.752254 11.6425 0.59114 11.4646 0.502582 11.249C0.414024 11.0333 0.403588 10.7935 0.473078 10.571L1.18308 8.298C1.24366 8.10396 1.24366 7.89605 1.18308 7.702L0.473078 5.429C0.403407 5.20623 0.413857 4.96611 0.502618 4.75024C0.591379 4.53436 0.752858 4.35634 0.959078 4.247L2.95808 3.187C3.14501 3.0876 3.29557 2.93144 3.38808 2.741L4.39308 0.674004C4.49972 0.454796 4.68277 0.282092 4.9078 0.188359C5.13283 0.0946266 5.38435 0.0863208 5.61508 0.165004L7.67708 0.868004C7.88648 0.939472 8.11368 0.939472 8.32308 0.868004L10.3851 0.165004C10.6159 0.0863939 10.8675 0.094846 11.0926 0.18877C11.3176 0.282693 11.5006 0.455615 11.6071 0.675004L12.6121 2.741C12.7044 2.93181 12.855 3.08834 13.0421 3.188L15.0421 4.248C15.2479 4.35746 15.409 4.53539 15.4976 4.75103C15.5861 4.96668 15.5966 5.20648 15.5271 5.429L14.8171 7.702C14.7565 7.89605 14.7565 8.10396 14.8171 8.298L15.5271 10.571C15.5968 10.7938 15.5863 11.0339 15.4975 11.2498C15.4088 11.4656 15.2473 11.6437 15.0411 11.753L13.0421 12.813C12.8551 12.9124 12.7046 13.0686 12.6121 13.259L12.0001 14.517V21.396L8.00008 20.038L4.00008 21.396V14.516V14.517ZM6.00008 15.704V18.604L8.00008 17.925L10.0001 18.605V15.704L8.32308 15.132C8.11368 15.0605 7.88648 15.0605 7.67708 15.132L6.00008 15.704ZM10.8131 12.384C11.0912 11.8119 11.544 11.343 12.1061 11.045L13.3701 10.375L12.9081 8.895C12.7259 8.31224 12.7259 7.68777 12.9081 7.105L13.3701 5.625L12.1061 4.955C11.5439 4.65679 11.091 4.18751 10.8131 3.615L10.1941 2.343L8.96808 2.761C8.34048 2.97495 7.65968 2.97495 7.03208 2.761L5.80608 2.343L5.18708 3.616C4.90895 4.18814 4.45615 4.65705 3.89408 4.955L2.63008 5.625L3.09208 7.105C3.27423 7.68777 3.27423 8.31224 3.09208 8.895L2.63008 10.375L3.89408 11.045C4.4563 11.3432 4.90912 11.8125 5.18708 12.385L5.80608 13.657L7.03208 13.239C7.65968 13.0251 8.34048 13.0251 8.96808 13.239L10.1941 13.657L10.8131 12.384ZM8.00008 5C8.2653 5 8.51965 5.10536 8.70719 5.2929C8.89472 5.48043 9.00008 5.73479 9.00008 6V10C9.00008 10.2652 8.89472 10.5196 8.70719 10.7071C8.51965 10.8946 8.2653 11 8.00008 11C7.73486 11 7.48051 10.8946 7.29297 10.7071C7.10544 10.5196 7.00008 10.2652 7.00008 10V6C7.00008 5.73479 7.10544 5.48043 7.29297 5.2929C7.48051 5.10536 7.73486 5 8.00008 5Z" fill="white"/>
</svg>
