<svg width="14" height="15" viewBox="0 0 14 15" fill="none" xmlns="http://www.w3.org/2000/svg">
<path d="M10.8334 2.72669L9.14671 4.02002L9.75338 6.06002L8.00005 4.85335L6.24671 6.06002L6.85338 4.02002L5.16671 2.72669L7.29338 2.66669L8.00005 0.666687L8.70671 2.66669L10.8334 2.72669ZM13.1667 7.33335L12.0734 8.16669L12.4667 9.48669L11.3334 8.70669L10.2 9.48669L10.5934 8.16669L9.50005 7.33335L10.8734 7.30002L11.3334 6.00002L11.7934 7.30002L13.1667 7.33335ZM11.6467 10.6334C12.2 10.58 12.7934 11.3667 12.44 11.8667C12.2267 12.1667 12 12.4467 11.72 12.7134C9.11338 15.3334 4.89338 15.3334 2.29338 12.7134C-0.313288 10.1134 -0.313288 5.88669 2.29338 3.28669C2.56005 3.02002 2.84005 2.78002 3.14005 2.56669C3.64005 2.21335 4.42671 2.80669 4.37338 3.36002C4.19338 5.26669 4.83338 7.24669 6.30005 8.70669C6.99312 9.4035 7.83223 9.93778 8.75683 10.271C9.68144 10.6041 10.6685 10.7279 11.6467 10.6334ZM10.5534 11.98C8.59626 11.8675 6.74738 11.045 5.35338 9.66669C3.90671 8.20669 3.13338 6.33335 3.02671 4.45335C1.15338 6.54669 1.22671 9.76002 3.23338 11.7734C5.24671 13.78 8.46005 13.8534 10.5534 11.98Z" fill="white"/>
</svg>
