<svg width="54" height="36" viewBox="0 0 54 36" fill="none" xmlns="http://www.w3.org/2000/svg">
<path d="M44.543 12.4863C41.8594 5.4082 35.0215 0.375 27.0117 0.375C19.002 0.375 12.1641 5.40234 9.48047 12.4805C4.45898 13.7988 0.75 18.375 0.75 23.8125C0.75 30.2871 5.99414 35.5312 12.4629 35.5312H14.8125C15.0703 35.5312 15.2812 35.3203 15.2812 35.0625V31.5469C15.2812 31.2891 15.0703 31.0781 14.8125 31.0781H12.4629C10.4883 31.0781 8.63086 30.293 7.24805 28.8691C5.87109 27.4512 5.13867 25.541 5.20312 23.5605C5.25586 22.0137 5.7832 20.5605 6.73828 19.3359C7.7168 18.0879 9.08789 17.1797 10.6113 16.7754L12.832 16.1953L13.6465 14.0508C14.1504 12.7148 14.8535 11.4668 15.7383 10.3359C16.6117 9.21508 17.6464 8.22978 18.8086 7.41211C21.2168 5.71875 24.0527 4.82227 27.0117 4.82227C29.9707 4.82227 32.8066 5.71875 35.2148 7.41211C36.3809 8.23242 37.4121 9.2168 38.2852 10.3359C39.1699 11.4668 39.873 12.7207 40.377 14.0508L41.1855 16.1895L43.4004 16.7754C46.5762 17.6309 48.7969 20.5195 48.7969 23.8125C48.7969 25.752 48.041 27.5801 46.6699 28.9512C45.9975 29.6275 45.1976 30.1637 44.3166 30.5288C43.4355 30.8939 42.4908 31.0806 41.5371 31.0781H39.1875C38.9297 31.0781 38.7188 31.2891 38.7188 31.5469V35.0625C38.7188 35.3203 38.9297 35.5312 39.1875 35.5312H41.5371C48.0059 35.5312 53.25 30.2871 53.25 23.8125C53.25 18.3809 49.5527 13.8105 44.543 12.4863Z" fill="white"/>
</svg>
