<svg width="16" height="25" viewBox="0 0 16 25" fill="none" xmlns="http://www.w3.org/2000/svg">
<path d="M8.36897 0.894483C8.32513 0.838457 8.2691 0.793146 8.20514 0.761985C8.14119 0.730824 8.07098 0.71463 7.99983 0.71463C7.92869 0.71463 7.85848 0.730824 7.79452 0.761985C7.73056 0.793146 7.67454 0.838457 7.63069 0.894483L1.0682 9.19722C1.01409 9.2663 0.980525 9.34922 0.971326 9.43648C0.962128 9.52375 0.977671 9.61184 1.01618 9.69069C1.05469 9.76954 1.1146 9.83596 1.18908 9.88236C1.26356 9.92876 1.34959 9.95326 1.43734 9.95307H5.76741V24.1562C5.76741 24.414 5.97835 24.6249 6.23616 24.6249H9.75179C10.0096 24.6249 10.2205 24.414 10.2205 24.1562V9.95894H14.5623C14.9549 9.95894 15.1717 9.50776 14.9315 9.20307L8.36897 0.894483Z" fill="white"/>
</svg>
